# xmcd
#
# Track frame offsets:
#	182
#	17765
#	35852
#	54402
#	74875
#	94252
#	116072
#	130670
#	147825
#	166110
#
# Disc length: 2521 seconds
#
# Revision: 1
# Processed by: cddbd v1.5.1PL2 Copyright (c) Steve Scherf et al.
# Submitted via: audiograbber 1.83.01
#
DISCID=9009d70a
DTITLE=George St. Kitts - Slam
DYEAR=1900
DGENRE=R&B
TTITLE0=Satisfy My Love
TTITLE1=Something Goin On
TTITLE2=I Want U Back
TTITLE3=All I Need
TTITLE4=Love Train
TTITLE5=Slam
TTITLE6=Love And Respect
TTITLE7=One More Chance
TTITLE8=I Will Be The One 4 U
TTITLE9=Tribute
EXTD=
EXTT0=
EXTT1=
EXTT2=
EXTT3=
EXTT4=
EXTT5=
EXTT6=
EXTT7=
EXTT8=
EXTT9=
PLAYORDER=
